HIERARCHY
ROOT Hips
{
 OFFSET 0.000000 0.000000 0.000000
 CHANNELS 6 Xposition Yposition Zposition Yrotation Xrotation Zrotation
 JOINT Chest
 {
  OFFSET 0.000000 9.857222 0.000240
  CHANNELS 3 Yrotation Xrotation Zrotation
  JOINT Chest2
  {
   OFFSET 0.000000 10.876940 -0.000436
   CHANNELS 3 Yrotation Xrotation Zrotation
   JOINT Chest3
   {
    OFFSET 0.000000 9.827798 0.000000
    CHANNELS 3 Yrotation Xrotation Zrotation
    JOINT Chest4
    {
     OFFSET 0.000000 9.827798 0.000000
     CHANNELS 3 Yrotation Xrotation Zrotation
     JOINT Neck
     {
      OFFSET 0.000000 13.831992 0.000000
      CHANNELS 3 Yrotation Xrotation Zrotation
      JOINT Head
      {
       OFFSET 0.000000 9.147643 -0.001036
       CHANNELS 3 Yrotation Xrotation Zrotation
       End Site
       {
        OFFSET 0.000000 17.515799 -0.000541
       }
      }
     }
     JOINT RightCollar
     {
      OFFSET -3.001579 7.717577 0.000000
      CHANNELS 3 Yrotation Xrotation Zrotation
      JOINT RightShoulder
      {
       OFFSET -14.002642 0.000000 0.000000
       CHANNELS 3 Yrotation Xrotation Zrotation
       JOINT RightElbow
       {
        OFFSET -30.053852 0.000000 0.000000
        CHANNELS 3 Yrotation Xrotation Zrotation
        JOINT RightWrist
        {
         OFFSET -24.564923 0.000000 -0.000000
         CHANNELS 3 Yrotation Xrotation Zrotation
         End Site
         {
          OFFSET -18.334355 0.000000 0.000000
         }
        }
       }
      }
     }
     JOINT LeftCollar
     {
      OFFSET 3.001579 7.717577 0.000000
      CHANNELS 3 Yrotation Xrotation Zrotation
      JOINT LeftShoulder
      {
       OFFSET 14.002642 0.000000 0.000000
       CHANNELS 3 Yrotation Xrotation Zrotation
       JOINT LeftElbow
       {
        OFFSET 30.053852 0.000000 0.000000
        CHANNELS 3 Yrotation Xrotation Zrotation
        JOINT LeftWrist
        {
         OFFSET 24.564923 0.000000 -0.000000
         CHANNELS 3 Yrotation Xrotation Zrotation
         End Site
         {
          OFFSET 18.334355 0.000000 0.000000
         }
        }
       }
      }
     }
    }
   }
  }
 }
 JOINT RightHip
 {
  OFFSET -8.003235 -0.001175 -0.000120
  CHANNELS 3 Yrotation Xrotation Zrotation
  JOINT RightKnee
  {
   OFFSET 0.000000 -41.759727 0.000113
   CHANNELS 3 Yrotation Xrotation Zrotation
   JOINT RightAnkle
   {
    OFFSET 0.000000 -40.728748 0.000159
    CHANNELS 3 Yrotation Xrotation Zrotation
    JOINT RightToe
    {
     OFFSET 0.000000 -6.515296 14.732841
     CHANNELS 3 Yrotation Xrotation Zrotation
     End Site
     {
      OFFSET 0.000000 -1.502839 6.412115
     }
    }
   }
  }
 }
 JOINT LeftHip
 {
  OFFSET 8.003235 -0.001175 -0.000120
  CHANNELS 3 Yrotation Xrotation Zrotation
  JOINT LeftKnee
  {
   OFFSET 0.000000 -41.759727 0.000113
   CHANNELS 3 Yrotation Xrotation Zrotation
   JOINT LeftAnkle
   {
    OFFSET 0.000000 -40.728748 0.000159
    CHANNELS 3 Yrotation Xrotation Zrotation
    JOINT LeftToe
    {
     OFFSET 0.000000 -6.515296 14.732841
     CHANNELS 3 Yrotation Xrotation Zrotation
     End Site
     {
      OFFSET 0.000000 -1.502839 6.412115
     }
    }
   }
  }
 }
}
MOTION
Frames: 14
Frame Time: 0.016667
0.000000 88.822259 0.000000 0.000000 -5.826342 0.000000 0.000000 11.116423 0.000000 0.000000 -5.290081 0.000000 0.000000 0.000000 0.000000 0.000000 0.000000 0.000000 0.000000 12.665069 0.000000 0.000000 0.575450 0.000000 0.000000 0.000000 0.000000 0.000000 0.000000 0.000000 2.337306 0.000000 0.000000 -2.337306 0.000000 0.000000 0.000000 0.000000 0.000000 0.000000 0.000000 0.000000 -2.337306 0.000000 0.000000 2.337306 0.000000 0.000000 0.000000 8.578828 0.000000 0.000000 1.905768 0.000000 0.000000 -4.658254 0.000000 0.000000 0.000000 0.000000 0.000000 8.578828 0.000000 0.000000 1.905768 0.000000 0.000000 -4.658254 0.000000 0.000000 0.000000 0.000000
-3.774650 90.599665 18.264262 -36.381500 -6.456719 2.653270 1.961779 -0.659217 0.722421 1.062212 -0.153807 0.351903 1.062212 -0.153807 0.351903 0.796747 -0.114744 0.264196 -2.830250 30.067539 0.241528 -5.059600 19.700207 0.928299 4.949990 22.419842 14.793182 34.647219 -6.640052 70.101871 22.589823 -3.498640 -3.341109 -5.886690 5.534759 -4.695171 -27.345062 29.165894 -22.753130 -41.539267 13.163507 -68.369514 -37.062279 -18.602201 5.793634 9.501111 -0.165562 8.891430 -6.062151 10.906130 -3.289243 7.441394 3.804349 1.502419 2.408728 -7.527872 0.638283 0.039529 0.317488 -0.080418 -17.105232 8.822097 -1.341875 22.796673 11.952810 -4.449474 1.972880 -11.427763 1.207599 -0.262626 -0.246309 -0.167435
-3.803806 90.594809 18.266964 -36.359245 -6.439768 2.651310 1.953555 -0.667725 0.727423 1.064625 -0.152070 0.353575 1.064625 -0.152070 0.353575 0.798557 -0.113437 0.265447 -2.826044 30.055681 0.242311 -5.052381 19.678106 0.929378 4.944537 22.383519 14.807741 34.602021 -6.624577 70.105640 22.593472 -3.452322 -3.314523 -5.875856 5.527198 -4.686632 -27.338658 29.150514 -22.736643 -41.525862 13.127546 -68.355303 -37.093530 -18.583399 5.824479 9.513504 -0.184220 8.908701 -6.088764 10.898073 -3.280062 7.430187 3.811613 1.512220 2.395049 -7.545748 0.651671 0.040972 0.323141 -0.085132 -17.081485 8.722749 -1.302855 22.891981 12.163584 -4.398078 1.927133 -11.508450 1.189345 -0.275219 -0.263204 -0.175725
-3.825790 90.590899 18.269632 -36.333117 -6.408910 2.656486 1.948843 -0.677122 0.729131 1.065033 -0.153213 0.357029 1.065033 -0.153213 0.357029 0.798864 -0.114288 0.268039 -2.823466 30.041374 0.240900 -5.047682 19.651414 0.926943 4.942252 22.344897 14.819213 34.583206 -6.594759 70.104277 22.576702 -3.436604 -3.304502 -5.867613 5.522826 -4.677622 -27.340286 29.136325 -22.729518 -41.508277 13.085513 -68.337679 -37.129396 -18.560672 5.852673 9.521237 -0.199825 8.925673 -6.100526 10.882695 -3.281109 7.409831 3.817190 1.526219 2.391682 -7.564237 0.660775 0.043823 0.324430 -0.084961 -17.065293 8.586684 -1.255052 22.894241 12.392546 -4.386586 1.974078 -11.584990 1.203245 -0.298761 -0.284003 -0.196901
-3.838461 90.585553 18.264890 -36.290905 -6.343668 2.660464 1.928059 -0.707485 0.731919 1.066482 -0.157244 0.362498 1.066482 -0.157244 0.362498 0.799955 -0.117301 0.272149 -2.820342 30.025150 0.238719 -5.041891 19.621118 0.923118 4.946686 22.305877 14.829523 34.593542 -6.550219 70.099533 22.549363 -3.458679 -3.310519 -5.865876 5.522449 -4.677185 -27.346985 29.120967 -22.725301 -41.509796 13.049936 -68.324103 -37.181153 -18.532492 5.889760 9.534069 -0.215502 8.942332 -6.105419 10.820645 -3.276389 7.413316 3.824191 1.542094 2.376473 -7.584460 0.666269 0.048012 0.338281 -0.081512 -17.061157 8.404612 -1.183251 22.817877 12.639730 -4.413213 2.051526 -11.675251 1.231549 -0.327056 -0.298502 -0.210014
-3.850986 90.579726 18.260902 -36.265755 -6.312066 2.655129 1.921404 -0.716927 0.747105 1.068640 -0.158376 0.370597 1.068640 -0.158376 0.370597 0.801576 -0.118135 0.278225 -2.818103 30.012148 0.239238 -5.038124 19.596939 0.924113 4.956317 22.276598 14.841950 34.620779 -6.500338 70.084570 22.504335 -3.498849 -3.333785 -5.864211 5.518626 -4.673302 -27.356085 29.114055 -22.727549 -41.530649 13.022627 -68.311961 -37.241606 -18.508373 5.934820 9.543007 -0.226148 8.960496 -6.077292 10.796428 -3.257563 7.428697 3.834646 1.547596 2.359681 -7.606105 0.674868 0.051831 0.348575 -0.077129 -17.055814 8.235902 -1.123541 22.797766 12.923058 -4.395888 2.099771 -11.780483 1.232159 -0.355504 -0.314872 -0.216355
-3.850548 90.574155 18.261784 -36.228114 -6.283847 2.657936 1.909187 -0.722855 0.754391 1.069515 -0.156349 0.381817 1.069515 -0.156349 0.381817 0.802234 -0.116594 0.286637 -2.818352 29.997495 0.242260 -5.039227 19.569872 0.930043 4.960530 22.239716 14.852468 34.640089 -6.452217 70.054703 22.448932 -3.539338 -3.352740 -5.860038 5.519083 -4.675499 -27.370299 29.099502 -22.731514 -41.574820 13.002630 -68.308921 -37.315808 -18.486963 5.991043 9.554365 -0.239912 8.978805 -6.051152 10.774463 -3.252178 7.412122 3.836258 1.557627 2.296664 -7.632501 0.707683 0.058579 0.369029 -0.084870 -17.114187 8.055813 -1.085856 22.811305 13.220012 -4.391267 2.191191 -11.890068 1.253241 -0.415724 -0.336751 -0.234134
-3.844637 90.568773 18.261123 -36.180464 -6.263527 2.659891 1.890575 -0.721312 0.767136 1.067088 -0.152042 0.394139 1.067088 -0.152042 0.394139 0.800414 -0.113344 0.295871 -2.817444 29.983299 0.246312 -5.038459 19.543663 0.937575 4.968575 22.202582 14.858288 34.654194 -6.401273 70.006686 22.401342 -3.585919 -3.357674 -5.861191 5.516100 -4.694289 -27.378557 29.086373 -22.734932 -41.626364 12.979329 -68.311195 -37.403617 -18.467077 6.052736 9.561399 -0.251329 8.995487 -6.040634 10.758421 -3.263145 7.413361 3.841354 1.569723 2.307600 -7.658514 0.734177 0.069597 0.385424 -0.084151 -17.208932 7.874990 -1.056898 22.875838 13.520095 -4.385720 2.284941 -11.999666 1.275203 -0.474789 -0.355298 -0.251212
-3.833425 90.564026 18.266426 -36.135350 -6.252916 2.654504 1.873270 -0.707516 0.790351 1.063753 -0.145655 0.407575 1.063753 -0.145655 0.407575 0.797912 -0.108532 0.305936 -2.816761 29.968235 0.253145 -5.038595 19.515969 0.950106 4.975060 22.165591 14.862396 34.671237 -6.358508 69.947464 22.349124 -3.633247 -3.368621 -5.860379 5.515671 -4.714186 -27.381607 29.069425 -22.737919 -41.674823 12.954516 -68.314631 -37.501295 -18.448079 6.112719 9.564335 -0.254159 9.011270 -6.040453 10.750092 -3.264226 7.446950 3.847240 1.582006 2.251642 -7.682751 0.761609 0.077888 0.401546 -0.081745 -17.329868 7.689129 -1.020738 22.990314 13.861741 -4.372879 2.324305 -12.120171 1.305773 -0.520155 -0.382516 -0.272211
-3.830191 90.559387 18.268235 -36.094791 -6.241491 2.636040 1.862287 -0.693535 0.831859 1.060418 -0.141062 0.421455 1.060418 -0.141062 0.421455 0.795410 -0.105065 0.316337 -2.818230 29.956458 0.261707 -5.042830 19.494509 0.965963 4.979478 22.138306 14.865853 34.675799 -6.324827 69.883352 22.297853 -3.669525 -3.382926 -5.860967 5.519410 -4.729615 -27.394624 29.056366 -22.745332 -41.716638 12.930445 -68.328642 -37.607387 -18.420991 6.173420 9.562399 -0.255170 9.023211 -6.049192 10.748565 -3.257480 7.462642 3.841637 1.598764 2.232915 -7.692655 0.783106 0.086866 0.409934 -0.078231 -17.348321 7.509408 -0.963468 23.115367 14.210251 -4.307544 2.252445 -12.254177 1.288970 -0.532599 -0.395884 -0.268548
-3.823512 90.554519 18.274948 -36.054750 -6.236805 2.627295 1.850786 -0.675453 0.864199 1.056522 -0.134893 0.435614 1.056522 -0.134893 0.435614 0.792488 -0.100417 0.326945 -2.819633 29.946905 0.273757 -5.047552 19.477324 0.987908 4.983662 22.109582 14.867876 34.666834 -6.299656 69.816578 22.247444 -3.695987 -3.396299 -5.860337 5.518509 -4.744287 -27.407114 29.044122 -22.751735 -41.751925 12.908327 -68.349600 -37.721173 -18.380638 6.236285 9.562036 -0.252668 9.032769 -6.072172 10.753385 -3.269927 7.475846 3.834057 1.624732 2.244765 -7.704030 0.796282 0.095454 0.421237 -0.072919 -17.359765 7.337070 -0.926366 23.232882 14.548074 -4.245781 2.246139 -12.379366 1.275366 -0.573385 -0.416509 -0.273718
-3.810849 90.549647 18.280315 -36.010291 -6.222444 2.621624 1.830916 -0.669125 0.893832 1.053384 -0.128293 0.450460 1.053384 -0.128293 0.450460 0.790133 -0.095444 0.338067 -2.822100 29.939880 0.285968 -5.054171 19.464874 1.010236 4.986740 22.086664 14.869068 34.638189 -6.284390 69.743167 22.208870 -3.708718 -3.400384 -5.859458 5.515899 -4.757089 -27.421223 29.027995 -22.760243 -41.771560 12.893270 -68.372626 -37.841661 -18.312011 6.284048 9.561642 -0.258934 9.047635 -6.094270 10.744915 -3.284898 7.481620 3.827581 1.649409 2.227969 -7.715777 0.817854 0.104207 0.434932 -0.069094 -17.355016 7.160862 -0.880653 23.330056 14.871213 -4.196518 2.221401 -12.496903 1.265542 -0.612867 -0.434136 -0.276744
-3.804188 90.545386 18.286988 -35.981968 -6.223075 2.610663 1.823480 -0.646445 0.929911 1.050492 -0.120442 0.464392 1.050492 -0.120442 0.464392 0.787961 -0.089533 0.348502 -2.824844 29.933034 0.300319 -5.061663 19.452854 1.036399 4.987043 22.066389 14.871574 34.608331 -6.277883 69.659799 22.176215 -3.717898 -3.390810 -5.858039 5.517923 -4.767485 -27.435245 29.006917 -22.765251 -41.774555 12.884782 -68.403736 -37.972051 -18.225526 6.331428 9.557327 -0.265813 9.059513 -6.093385 10.751754 -3.291518 7.485116 3.828289 1.672178 2.231107 -7.727367 0.839202 0.112409 0.443506 -0.067375 -17.292733 7.003961 -0.837602 23.409726 15.197632 -4.116585 2.173884 -12.627051 1.231967 -0.629151 -0.444222 -0.274177
-3.805622 90.541818 18.294861 -35.975448 -6.221665 2.598580 1.828968 -0.620497 0.969603 1.049225 -0.114022 0.477811 1.049225 -0.114022 0.477811 0.787008 -0.084697 0.358555 -2.829236 29.927151 0.312802 -5.071738 19.442598 1.059510 4.984137 22.044839 14.876136 34.588746 -6.267956 69.575835 22.151910 -3.724751 -3.376287 -5.863746 5.518487 -4.776982 -27.444669 28.991479 -22.769991 -41.769381 12.879022 -68.433461 -38.106643 -18.136621 6.375542 9.552299 -0.274259 9.074011 -6.072340 10.764710 -3.292169 7.490820 3.819236 1.694541 2.247752 -7.741082 0.871458 0.119118 0.455447 -0.078053 -17.170151 6.851211 -0.785236 23.415664 15.506878 -4.049342 2.134857 -12.750300 1.191364 -0.640359 -0.449996 -0.260869
